<svg xmlns="http://www.w3.org/2000/svg" viewBox="0 0 100 100">
  <!-- Sky Background -->
  <rect width="100" height="100" rx="20" fill="#4a9ff5"/>
  
  <!-- Sun -->
  <circle cx="70" cy="30" r="15" fill="#ffd700"/>
  <g fill="#ffd700">
    <path d="M70 10 L70 0"/>
    <path d="M70 60 L70 50"/>
    <path d="M50 30 L40 30"/>
    <path d="M100 30 L90 30"/>
    <path d="M55 15 L48 8"/>
    <path d="M92 8 L85 15"/>
    <path d="M55 45 L48 52"/>
    <path d="M92 52 L85 45"/>
  </g>
  
  <!-- Cloud -->
  <path d="M65 55 Q55 45 45 50 Q35 35 20 45 Q5 50 15 65 Q10 75 25 75 Q30 85 45 80 Q55 85 65 75 Q75 80 70 65 Q80 60 65 55 Z" fill="#ffffff"/>
  
  <!-- Raindrops -->
  <path d="M30 85 L25 95" stroke="#1e90ff" stroke-width="3" stroke-linecap="round"/>
  <path d="M40 85 L35 95" stroke="#1e90ff" stroke-width="3" stroke-linecap="round"/>
  <path d="M50 85 L45 95" stroke="#1e90ff" stroke-width="3" stroke-linecap="round"/>
</svg>